PathFileType	4	(X/Y/Z)	 s10c0001.trc
DataRate	CameraRate	NumFrames	NumMarkers	Units	OrigDataRate	OrigDataStartFrame	OrigNumFrames
200	200	5	49	mm	200	1	2000
Frame#	Time	racr			lacr			c7			jug			rlel			rdr			llel			ldr			s2			lic			ric			lasi			rasi			rpsi			lpsi			rgt			lgt			rth1			rth2			rth3			rth4			rlfc			rmfc			rsh1			rsh2			rsh3			rsh4			rlmal			rmmal			rcal			rtoe			rmt5			rmt1			lth1			lth2			lth4			lth3			llfc			lmfc			llmal			lmmal			lcal			lmt1			lmt5			lsh1			lsh2			lsh3			lsh4			ltoe			
		X1	Y1	Z1	X2	Y2	Z2	X3	Y3	Z3	X4	Y4	Z4	X5	Y5	Z5	X6	Y6	Z6	X7	Y7	Z7	X8	Y8	Z8	X9	Y9	Z9	X10	Y10	Z10	X11	Y11	Z11	X12	Y12	Z12	X13	Y13	Z13	X14	Y14	Z14	X15	Y15	Z15	X16	Y16	Z16	X17	Y17	Z17	X18	Y18	Z18	X19	Y19	Z19	X20	Y20	Z20	X21	Y21	Z21	X22	Y22	Z22	X23	Y23	Z23	X24	Y24	Z24	X25	Y25	Z25	X26	Y26	Z26	X27	Y27	Z27	X28	Y28	Z28	X29	Y29	Z29	X30	Y30	Z30	X31	Y31	Z31	X32	Y32	Z32	X33	Y33	Z33	X34	Y34	Z34	X35	Y35	Z35	X36	Y36	Z36	X37	Y37	Z37	X38	Y38	Z38	X39	Y39	Z39	X40	Y40	Z40	X41	Y41	Z41	X42	Y42	Z42	X43	Y43	Z43	X44	Y44	Z44	X45	Y45	Z45	X46	Y46	Z46	X47	Y47	Z47	X48	Y48	Z48	X49	Y49	Z49	
1	0.0050	463.959492	1377.861721	682.389532	483.391548	1386.190440	304.139893	432.709909	1426.238635	484.194505	564.445323	1374.894828	500.816956	455.164108	1120.583665	813.314994	478.694596	908.836982	926.561822	482.065185	1107.444970	194.688633	536.188267	904.748081	92.125373	388.222537	932.188592	496.078780	535.618316	993.671823	350.475457	539.987483	1001.634655	648.551790	599.365060	919.357694	383.283062	583.128854	907.542139	638.603824	404.821914	974.817778	559.918743	407.824040	985.516113	445.627159	465.870909	853.922158	684.318795	472.219725	855.561934	308.567968	485.514497	729.118145	714.869306	507.865428	642.011983	698.960352	485.439324	561.384754	691.865596	543.647737	645.807463	691.199791	494.233547	459.279953	675.105830	490.258990	446.194407	564.273283	448.210115	360.093542	716.888060	469.344786	273.585850	714.683549	445.366845	190.918630	716.863640	500.374495	274.064042	691.277857	454.191379	85.560585	710.223165	483.942378	97.101133	629.639708	419.010164	52.650964	655.150673	652.233234	86.462412	711.176951	566.127013	41.936948	755.951292	610.326358	49.111777	657.361547	494.392278	747.517127	282.845003	516.015021	663.637177	294.515046	550.084682	669.120623	305.171824	494.734600	578.769646	300.975040	496.695574	473.905923	315.100045	491.599235	454.670877	425.539023	450.895038	104.803551	284.135619	469.755131	100.853001	362.264533	411.365728	59.727426	327.313999	612.062512	47.384789	347.353517	579.879812	47.172286	245.122203	446.653790	365.252704	269.923569	473.483845	282.717231	275.920069	452.333296	195.408013	273.189858	501.288720	282.394814	301.407021	653.804980	93.054795	295.396894	
2	0.0100	463.943959	1377.863393	682.397006	483.408502	1386.196579	304.159054	432.697863	1426.235603	484.216224	564.447861	1374.894500	500.830105	455.156995	1120.568911	813.296844	478.695533	908.824132	926.529139	482.059350	1107.420575	194.726473	536.193978	904.727965	92.151260	388.231193	932.175822	496.087964	535.625494	993.659136	350.455082	539.980362	1001.642379	648.553983	599.388715	919.351162	383.290854	583.117306	907.541457	638.612577	404.820756	974.787768	559.908231	407.859765	985.534234	445.588888	465.860006	853.913156	684.319887	472.251253	855.560030	308.564532	485.503177	729.127150	714.877855	507.903187	642.041256	698.965794	485.429794	561.397806	691.875995	543.615783	645.804799	691.218631	494.228087	459.285407	675.111105	490.306861	446.184775	564.306896	448.208683	360.087229	716.889143	469.341274	273.585252	714.696356	445.409848	190.887882	716.869305	500.384892	274.050930	691.292508	454.220549	85.558115	710.240364	483.985016	97.113384	629.637336	419.043983	52.586347	655.170577	652.249796	86.462229	711.199494	566.116890	41.916886	755.941490	610.299884	49.131834	657.369505	494.445060	747.506932	282.852668	516.013087	663.635039	294.514939	550.125724	669.108867	305.208564	494.755004	578.765129	300.982403	496.709626	473.904934	315.103854	491.598666	454.671238	425.557395	450.914789	104.796280	284.145156	469.785702	100.855175	362.270819	411.360250	59.716026	327.334747	612.066256	47.383586	347.369485	579.859528	47.170335	245.110057	446.661236	365.234562	269.929174	473.491728	282.726958	275.914356	452.358532	195.399911	273.188104	501.285275	282.416869	301.400537	653.827811	93.054454	295.413535	
3	0.0150	463.934633	1377.867097	682.390506	483.433064	1386.192751	304.148864	432.707443	1426.226412	484.190835	564.432115	1374.902848	500.848436	455.141354	1120.563430	813.286299	478.701079	908.815216	926.522510	482.058725	1107.420613	194.728333	536.202094	904.718777	92.165689	388.234082	932.180226	496.076942	535.640637	993.654989	350.462050	539.979697	1001.649844	648.573669	599.414473	919.359430	383.300082	583.114017	907.555857	638.629567	404.815851	974.810402	559.910371	407.849064	985.534547	445.577675	465.859447	853.915900	684.312912	472.266255	855.550980	308.553595	485.503519	729.140232	714.885645	507.424594	643.291479	700.851927	485.431477	561.389326	691.876989	543.607882	645.801668	691.219455	494.230787	459.288624	675.123466	490.291151	446.173986	564.246693	448.201201	360.076873	716.895902	469.339423	273.572746	714.712572	445.405052	190.893448	716.876241	500.393638	274.070187	691.308094	454.202252	85.536308	710.235618	483.960134	97.097364	629.638251	419.046275	52.590732	655.159623	652.245842	86.450446	711.210054	566.113346	41.935946	755.940239	610.314550	49.156780	657.358427	494.449785	747.506340	282.848513	516.038686	663.642590	294.507271	550.133506	669.099554	305.216254	494.770474	578.769886	300.977223	496.736347	473.904893	315.101491	491.614711	454.681011	425.556647	450.895517	104.821949	284.156170	469.789119	100.850263	362.287200	411.355844	59.705555	327.339350	612.066795	47.372261	347.365911	579.886370	47.169975	245.134898	446.686497	365.240674	269.927586	473.504625	282.723075	275.940181	452.348293	195.410808	273.188795	501.292974	282.403323	301.413699	653.818239	93.060427	295.413056	
4	0.0200	463.912318	1377.843087	682.378636	483.417783	1386.208616	304.143519	432.824714	1426.424639	483.979700	564.436805	1374.893584	500.847257	457.222066	1121.024421	814.390062	478.710419	908.808979	926.502066	481.892892	1107.311988	194.731742	536.218470	904.712970	92.191015	388.334069	933.175122	496.887440	535.640175	993.663779	350.466714	539.950025	1001.644723	648.564445	599.429123	919.349182	383.320443	583.107691	907.547120	638.635059	404.487637	975.142272	559.746682	407.860400	985.530716	445.535778	465.877700	853.855380	684.344619	472.288546	855.556353	308.538010	485.480817	729.135018	714.883804	507.559228	643.320863	700.530500	485.411114	561.382511	691.868682	544.446388	645.935396	691.894548	494.226159	459.285508	675.115967	486.289018	443.714241	563.345749	448.196262	360.081912	716.872463	468.918480	273.195709	714.578213	444.612475	190.616662	716.732573	500.461312	274.090249	691.316341	454.188995	85.546254	710.222072	483.478780	95.917415	630.119775	419.030133	52.582082	655.150344	653.026738	86.429381	711.890337	566.108647	41.920745	755.948260	610.312901	48.172790	658.370102	494.477274	747.506863	282.852440	515.845601	667.581588	293.260787	550.523205	668.768850	305.731839	494.781092	578.790341	300.998279	496.750132	473.899841	315.103743	491.614305	454.681430	425.565111	450.915116	104.792918	284.142395	469.778196	100.913656	362.177634	411.348289	59.709566	327.330536	612.068990	47.379090	347.359014	579.883691	47.177613	245.129005	446.697057	365.228623	269.924023	474.488834	283.144324	276.396549	452.363173	195.408237	273.185194	503.144242	284.633879	302.117264	653.730202	93.266086	295.318408	
5	0.0250	463.772446	1378.082766	682.510310	483.505297	1385.921064	304.134214	432.803433	1426.328184	483.657040	564.462168	1374.666556	500.791287	457.194834	1121.072732	814.319481	478.945415	908.909341	926.437518	482.448742	1107.521424	194.864411	536.258958	904.069223	92.355855	387.808013	931.631000	496.958527	535.994007	993.531926	350.717749	540.136099	1001.665928	648.615319	598.658806	918.039165	383.112757	582.917192	907.494466	638.426043	407.092798	972.711909	559.018799	407.147652	983.253513	445.396171	465.941310	853.923145	684.290640	471.931944	854.435033	308.466206	485.275266	729.250903	714.877073	507.027206	643.010820	700.339809	485.263805	561.409512	691.871703	544.477638	645.898323	691.826636	494.057016	459.184120	675.073278	482.274418	441.247418	562.463224	448.349190	360.032104	717.018652	469.537527	273.087203	715.114323	444.379685	190.666676	716.757687	500.978219	273.841808	691.967107	454.085247	85.034417	709.943682	483.522420	95.750029	629.991039	419.779829	51.195638	655.229106	651.990948	85.049856	711.285408	566.099301	42.177598	755.890731	609.763863	46.744171	658.345315	494.093141	746.137466	282.981810	516.271851	664.432887	294.303169	550.360952	666.169515	304.909143	494.569457	577.946219	301.156446	495.666638	472.730070	314.953331	491.616996	454.747901	425.559632	450.986820	104.048816	283.941480	469.883607	101.044540	362.349321	410.917301	58.700006	327.473596	612.133525	46.930158	347.631350	579.669373	46.206514	245.104472	446.437546	364.464947	269.911723	473.167285	281.873322	275.942909	452.261444	194.449293	273.297385	501.384063	283.068086	301.383505	653.437425	92.112293	295.580755	
